<svg xmlns="http://www.w3.org/2000/svg" viewBox="0 0 490.06 112.43"><defs><style>.cls-1{fill:none;}</style></defs><g id="Calque_2" data-name="Calque 2"><g id="Calque_1-2" data-name="Calque 1"><path class="cls-1" d="M31.69,34.91c.17-7.46,1.49-15.29-2-22.24-2.46-6.09-9-4.58-9.89,1.35-4.66,25.75-6.93,51.86-2.3,76C26.68,73.58,33.17,54,31.69,34.91Z"/><path class="cls-1" d="M47.94,91.22c4.42,35.94,34.47-2.44,24-20.14C58.32,54.67,48.15,78.66,47.94,91.22Z"/><path d="M484,103.77c-5.49-.51-12.25-5.68-9.42-10.41a25.78,25.78,0,0,0,3.47-8.61c1.14-6.34,1.79-13.61-1-18.49-3.64-5.92-5.8-8.28-8.85-8.52a6.58,6.58,0,0,0-5.63,2.67c-6.77,8.77-2.18,24.69,1.15,34.38-9.3,26.22-24.66-6.71-20.38-21.11-.07-3.12,0-6.76-1.32-9.23a3.57,3.57,0,0,0-6.59,1c-2.71,13,3.39,34.53-13,39.25-13.78-8.72,2.2-32.86-11.05-41.95-5.85-3-11.75.73-17.36.39-4-7.7-19.91-5.45-15.64,4.57,1.87,3.07,5.62,4.12,9,3.73.17,12.56-13.11,38.81-27.32,27.51,7.46-8.81,14-20.5,11.42-32.29-3.32-12.44-18-12.05-21.27.28-3.12,6.48-3.52,13.94-2.6,21,.15,4,3.65,9.28,1.52,12.61-7,8-22.59,4.68-24.33-5.8,15.5-24.11,23-54.67,17-82.86-29.21-40.28-30.36,40.08-30.51,56.86-.63,3.33,2.37,20.7,3.88,28.37-3.27,4.57-12.09,12.3-16.64,5.58-5.62-10,2.62-28.11-6.08-35.49-5.63-3.89-13.38-10.07-21.79-6.42-6.23,1.17-9.43,11.3-16.47,7.59-8.32-22.78-28.6,2.62-8.19,7.83l1.06.27h.09l.92.26-1.06,4.51C229,122.73,223.76,105,222.66,71c1.19-7.23,10.19-11.79,13.47-18.59,7-12.47,11.67-27.3,8.81-41.79a12,12,0,0,0-3-7.2,8.08,8.08,0,0,0-9.51-2.11c-12.07,5.42-12.54,26.33-15,38.42-1.57,7.67,3.33,28.46-6.74,27.81-2.77-5.09-8-7.84-13.45-8.93-8.61-1.62-17,4.86-25.38,5.18-2.47-10.35-20.65-5.58-14.31,3.75,2.17,2.75,6.57,2.61,8.37,5-2.4,13.27-10.94,36.7-28.11,31.56-13.1-10.37,8.47-26,12.63-38.68.42-1.27,1.06-2.47,1.43-3.76C158.17,39.53,159,34.14,158,18.35,157.63,12,155.69,5,150.17,1.84c-27.55-15.94-28,76.31-26,91.81-3.76,5.58-9.87,10-13.85,14.52,4.38,5.36,12.38-2.5,15.86-6.43,17.57,23.08,44.77-2.67,46.54-24.35.7-6.08-1.64-7.43,5.44-8.8-.82,6.59-2.73,13.39-2.54,20.27C174,130.15,223.59,108.38,213,77.28c-1.2-1.88,2.62-5.45,3.44-3.43-1.55,29.94,13.06,59.15,32.26,18.9A89,89,0,0,0,252,84.29v0c0-.25.1-.5.16-.74a15.25,15.25,0,0,1,.56-1.74l1.17-4.07,0,0c9.94-9,.72,9.13,2.29,14.56,1.26,22.54,22.92,26.17,33.8,7.33,3.4,14.11,20.48,12.1,28.31,2.73,8.32,8.28,21,10.55,30.79,5.64V108c5.81-5.76,10.78,2.92,21.23-.07,14.45-3.7,22.57-18.67,24.78-32.38.4-7.5,1.52-7.67,8.9-8.53,14.44-.27-3.55,35.67,11.88,40.75,8.49,6.23,17.81-1,22.2-8.51,2.49-1,3.93,5.45,6.19,6.89,4.95,7.46,16.36,5.47,21.24-1.08,4-4,7.52,9.44,23.46,4.22.75-.25.85-.33,1-.68C490,104.39,486.84,103.76,484,103.77ZM235.08,6.62c3.91-3.71,5.16,4.09,4.84,6.83,1.84,16.13-4.95,33.94-16.95,45,.22-8.61.32-17.71,2.37-26.33a61.42,61.42,0,0,0,1.41-7.73C227.42,18.12,230.54,10.8,235.08,6.62ZM164.69,62.31c1.14-.18,2.06,1.47,1.54,2.71a1.06,1.06,0,0,1-.93.61C160,65.87,161.5,61.58,164.69,62.31ZM149.24,9.91c10,19.9-8.54,60.74-18.77,77-.44-21-1.31-57.95,9.87-77.3A5.08,5.08,0,0,1,149.24,9.91Zm54.91,60.88c-5.51-.09-13,.67-17-3C190.68,60.9,202.75,62.9,204.15,70.79ZM183.51,86c-1.85-18.15,10.94-5.91,21.86-7.85C208.61,102.66,182.27,123.1,183.51,86Zm60.21-21.9c3.46-2.88,5.43,3.81,5.33,6.59C245.42,71,239.09,67.79,243.72,64.11ZM262.33,90.8c.4-15.42,15.32-39.69,25.54-15.79C293.48,92.47,266,125.1,262.33,90.8Zm56-19.13C320.76-50,357.09,27.48,321,88.25,318.84,81.35,318.3,71.67,318.3,71.67Zm40.17-4.06c10.62-15.16,3.82,21.58-2.08,24.79-1.6-6.69-2.67-14.47-.25-20.84a14.69,14.69,0,0,1,2.33-4Zm31-1.91c-.16,1.84-8.07,3.41-7.19-2.15C382.66,61,389.44,61.91,389.43,65.7Zm79.71,21.18a17.16,17.16,0,0,1-1.4-18.34c.63-1.22,2.67-1,3.32.18C474.33,74.82,474,80.94,469.14,86.88Z"/><path d="M12.17,98.8c1.32,4.69-20.91,11.83-8.27,13h0c4.25-1.93,7.94-5.38,11.75-7.61h0c6.42,6.79,16.76,9,25.49,7h0a31.36,31.36,0,0,0,3.53-1.49c1.79-.82,2.2-.87,3.54-1.58h0c9.17,9.66,22.46.72,27.74-8.84h0c.22,8.85,17.32,15.11,18.42,6.62h0c-2.13-3.45-8.1,1.21-10.61-3.4-4.08-10.64,2.26-28-6-35.37C60.58,51.93,46.06,63.63,42.44,85c-.12.71-.23,1.32-.29,1.95-.55,5.53.77,11,2.44,16.08h0c-5,5-14.77,4.15-19.74-.46-2.34-2.17-3.58-3.94-3.24-6.27h0c3.61-6.75,8-12.79,10-20.24,4-12.52,8.31-24.48,7.73-37.66-.11-2.61-.19-5.22-.13-7.84.29-11.45-.8-25.07-14.1-27.55h0C3.57,1,6,77,12.17,98.8ZM19.85,14c.84-5.93,7.43-7.44,9.89-1.35,3.44,7,2.12,14.78,2,22.24h0c1.48,19.1-5,38.67-14.13,55.1h0C12.92,65.87,15.19,39.77,19.85,14Zm28.09,77.2c.21-12.56,10.38-36.55,24-20.14h0c10.43,17.7-19.62,56.08-24,20.14Z"/><path d="M439.08,53.43c2.82.66,5.7-4.34,2.94-6.07C435.89,43.12,431.1,53.24,439.08,53.43Z"/></g></g></svg>