<svg xmlns="http://www.w3.org/2000/svg" viewBox="0 0 156.17 113.66"><g id="Calque_2" data-name="Calque 2"><g id="Calque_1-2" data-name="Calque 1"><path d="M155.93,48.44h0a1.08,1.08,0,0,0-1.52-.17l-5.62,4.45c-1.26-.35-3.25.58-4.24,1.34-6.91,5.29-14.32,9.45-22,9.74-2.46-10.35-20.65-5.58-14.31,3.75,2.17,2.75,6.57,2.61,8.37,5C114.8,82.73,109.31,99,99,103.56a12.2,12.2,0,0,1-15.67-5.68c-.56-1.09-.79-2-.49-2.51,6.5-11.09,10.57-16,16.08-26a70.17,70.17,0,0,0,4.93-12.17c5.58-20.06,5.86-25,4.61-42.89A15.5,15.5,0,0,0,101.11,2C73.34-14.57,72.9,78.11,74.93,93.65,72,97.94,68,100.71,62.58,103.23c-5.11,1.8-11.73,0-15.61-3.58-2.34-2.17-3.59-3.93-3.24-6.27h0c3.6-6.74,8-12.79,10-20.23,4.1-12.91,7.78-23.92,8.49-37.6.21-4,.08-4.64.15-6.51C62.77,17.4,60.9,2.64,47.22.09h0C25.7-1.92,27.62,72,33.76,93.81c.85,3-9.12,11.89-24.74,14.78a3.15,3.15,0,0,0-1.83,1.74l-6.3,1.18A1.09,1.09,0,0,0,0,112.78a1.08,1.08,0,0,0,1.26.86l6-1.12c.89,1.09,3.51,1.63,9.49.24,0,0,5.83-2.2,8.17-3.43.76-.4,3.07-1.83,3.73-2.24,3.65-2.19,5.6-3.78,9.09-5.83h0c6.42,6.79,16.76,9,25.49,7h0a18.08,18.08,0,0,0,1.92-.75c4.69-1.5,10.15-4,11.75-5.78,17.56,23.08,43.5-2.39,45.27-24.07.67-5.86-.21-7.61,6-8.93a19.69,19.69,0,0,0,2.39-.67c2.87-1,6.09-2.12,17.87-10.62,1.82-1.32,2.11-2.23,1.79-3.1L155.76,50A1.08,1.08,0,0,0,155.93,48.44ZM39.68,87.07C35,62.94,37.32,36.83,42,11.08c.84-5.92,7.43-7.44,9.89-1.35,3.45,7,3.92,12.12,3.76,19.59l-.1,2.32c-.05,1.37,0,2.73,0,4.09.77,18.33-7.08,35.5-15.88,51.34ZM91.07,9.64a5.08,5.08,0,0,1,8.9.27c10,19.9-8.54,60.74-18.78,77C80.76,65.92,79.89,29,91.07,9.64Zm26.08,55.83c-7.44,1-6.53-4.22-3.34-3.48,1.31.28,4,.73,3.86,2.07C117.61,64.68,117.54,65.41,117.15,65.47Z"/></g></g></svg>